<svg width="172" height="34" viewBox="0 0 172 34" fill="none" xmlns="http://www.w3.org/2000/svg">
<path d="M0 26.3068V6.10352e-05H4.88873V22.0143H19.0482V26.3068H0Z" fill="white"/>
<path d="M19.9131 16.9466C19.9131 11.089 23.8926 7.02005 29.3776 7.02005C34.8625 7.02005 38.8122 11.0741 38.8122 16.9466C38.8122 22.8786 34.8327 26.8731 29.3776 26.8731C23.9373 26.8731 19.9131 22.6551 19.9131 16.9466ZM34.0427 17.0211C34.0427 12.8478 32.12 10.7462 29.3776 10.7462C26.5904 10.7462 24.6826 12.8478 24.6826 17.0211C24.6826 21.1497 26.6053 23.1469 29.3776 23.1469C32.1349 23.1469 34.0427 21.1497 34.0427 17.0211Z" fill="white"/>
<path d="M40.8086 16.9169C40.8086 10.9849 44.9819 7.03511 50.4668 7.03511C54.8637 7.03511 57.8297 9.50929 58.9178 12.5946L54.6699 14.1297C53.9992 12.1027 52.5237 10.7464 50.3029 10.7464C47.6349 10.7464 45.4589 12.7734 45.4589 16.9169C45.4589 21.12 47.6797 23.162 50.3476 23.162C52.8665 23.162 54.2228 21.6566 54.968 19.406L59.2904 20.9114C57.9341 24.4885 54.7743 26.8881 50.4221 26.8881C44.7881 26.8732 40.8086 22.9533 40.8086 16.9169Z" fill="white"/>
<path d="M60.8708 21.4927C60.8708 16.276 66.5048 14.6514 72.6306 14.085V13.459C72.6306 11.6108 71.6171 10.493 69.2175 10.493C66.4303 10.493 65.2379 11.9984 64.7758 13.6528L60.6025 12.5647C61.0199 9.77757 63.9412 7.03511 69.2025 7.03511C74.3447 7.03511 77.1765 9.43476 77.1765 14.0254V21.5821C77.1765 22.4764 77.3256 22.7148 78.3093 22.7148H80.0382V26.3218H78.1155C75.0303 26.3218 74.285 25.2635 74.2403 22.4167H72.6306C71.9152 24.8611 70.1117 26.8881 66.8476 26.8881C63.3152 26.8732 60.8708 24.8015 60.8708 21.4927ZM72.6455 18.6011V17.0958C68.815 17.5131 65.536 18.3776 65.536 21.0753C65.536 22.5062 66.475 23.4005 68.353 23.4005C70.5291 23.4154 72.6455 21.9398 72.6455 18.6011Z" fill="white"/>
<path d="M86.7305 0H82.1846V26.3068H86.7305V0Z" fill="white"/>
<path d="M100.219 26.3068V0H112.471C118.03 0 121.22 2.89151 121.22 7.03501C121.22 12.1473 116.898 12.9373 113.708 13.0863V14.8898C117.807 14.9643 119.789 16.0225 120.505 19.8828L121.712 26.3068H116.45L115.541 20.3002C115.049 17.1404 113.514 15.948 110.131 15.948H105.093V26.3217H100.219V26.3068ZM105.108 11.8343H111.606C114.2 11.8343 116.152 10.627 116.152 8.00381C116.152 5.38059 114.2 4.20312 111.606 4.20312H105.108V11.8343Z" fill="white"/>
<path d="M124.916 20.0618V7.58656H129.507V18.9737C129.507 21.8652 130.744 22.998 132.741 22.998C136.318 22.998 136.989 19.3911 136.989 16.3803V7.58656H141.579V26.3068H137.272C137.317 25.025 138.062 23.4153 139.046 21.9845H136.899C135.99 24.5332 134.157 26.8732 130.967 26.8732C127.092 26.8732 124.916 24.1606 124.916 20.0618Z" fill="white"/>
<path d="M150.761 0H146.215V26.3068H150.761V0Z" fill="white"/>
<path d="M154.114 16.9466C154.114 10.9698 157.989 7.02005 163.176 7.02005C169.183 7.02005 172.492 11.8641 171.896 18.0644H158.705C158.854 21.8651 160.926 23.2513 163.325 23.2513C165.949 23.2513 167.201 21.4478 167.871 19.8679L172 21.4031C170.793 24.3393 168.199 26.8582 163.251 26.8582C157.721 26.8731 154.114 23.1469 154.114 16.9466ZM167.335 14.696C167.186 11.9535 165.531 10.4481 163.161 10.4481C160.911 10.4481 159.137 11.9535 158.809 14.696H167.335Z" fill="white"/>
</svg>
